<svg width="24" height="24" viewBox="0 0 24 24" fill="none" xmlns="http://www.w3.org/2000/svg">
<path d="M12 4.001C15.168 4.001 16.966 6.098 17.227 8.631H17.307C17.7914 8.63021 18.2711 8.72486 18.7189 8.90955C19.1666 9.09424 19.5736 9.36534 19.9166 9.70736C20.2595 10.0494 20.5317 10.4556 20.7176 10.9029C20.9035 11.3501 20.9995 11.8296 21 12.314C20.9993 12.7982 20.9033 13.2775 20.7174 13.7246C20.5315 14.1717 20.2594 14.5777 19.9166 14.9196C19.5737 15.2615 19.1669 15.5326 18.7193 15.7173C18.2718 15.9019 17.7922 15.9967 17.308 15.996H16.726L15.144 18.631C15.0492 18.7963 14.8951 18.9193 14.713 18.9751C14.5308 19.0309 14.3342 19.0153 14.1631 18.9314C13.9921 18.8475 13.8593 18.7017 13.7919 18.5235C13.7244 18.3453 13.7273 18.1481 13.8 17.972L13.845 17.881L14.994 15.996H12.858L11.276 18.631C11.1812 18.7963 11.0271 18.9193 10.845 18.9751C10.6628 19.0309 10.4662 19.0153 10.2951 18.9314C10.1241 18.8475 9.99133 18.7017 9.92388 18.5235C9.85644 18.3453 9.85934 18.1481 9.932 17.972L9.977 17.881L11.125 15.996H8.987L7.407 18.631C7.31333 18.7984 7.15907 18.9236 6.97595 18.9807C6.79283 19.0379 6.59477 19.0227 6.42251 18.9383C6.25024 18.8539 6.11687 18.7067 6.04981 18.5269C5.98276 18.3472 5.98712 18.1486 6.062 17.972L6.107 17.881L7.255 15.996H6.693C6.20873 15.9968 5.72905 15.9022 5.28136 15.7175C4.83366 15.5329 4.42673 15.2619 4.08379 14.92C3.74085 14.5781 3.46862 14.1719 3.28266 13.7248C3.09671 13.2777 3.00066 12.7983 3 12.314C3.00039 11.8296 3.09625 11.35 3.28209 10.9026C3.46793 10.4552 3.74011 10.0488 4.08308 9.70671C4.42604 9.36458 4.83307 9.09339 5.2809 8.90865C5.72872 8.7239 6.20856 8.62921 6.693 8.63H6.773C7.035 6.08 8.831 4.001 12 4.001ZM12 5.499C9.929 5.499 8.123 7.132 8.123 9.388C8.123 9.745 7.804 10.026 7.439 10.026H6.749C5.488 10.026 4.465 11.027 4.465 12.262C4.465 13.497 5.488 14.499 6.749 14.499H17.25C18.511 14.499 19.534 13.497 19.534 12.262C19.534 11.027 18.511 10.026 17.25 10.026H16.56C16.195 10.026 15.876 9.746 15.876 9.388C15.876 7.103 14.07 5.498 11.999 5.498L12 5.499Z" fill="black"/>
</svg>
