<svg width="24" height="24" viewBox="0 0 24 24" fill="none" xmlns="http://www.w3.org/2000/svg">
<path d="M12 2C12.2652 2 12.5196 2.10536 12.7071 2.29289C12.8946 2.48043 13 2.73478 13 3V5.551L14.707 3.845C14.7992 3.74949 14.9096 3.67331 15.0316 3.6209C15.1536 3.56849 15.2848 3.5409 15.4176 3.53975C15.5504 3.5386 15.6821 3.5639 15.805 3.61418C15.9278 3.66446 16.0395 3.73871 16.1334 3.83261C16.2273 3.9265 16.3015 4.03815 16.3518 4.16105C16.4021 4.28394 16.4274 4.41562 16.4263 4.5484C16.4251 4.68118 16.3975 4.8124 16.3451 4.9344C16.2927 5.05641 16.2165 5.16675 16.121 5.259L13 8.379V11H15.62L18.741 7.88C18.8327 7.78226 18.943 7.70393 19.0655 7.64968C19.1881 7.59542 19.3202 7.56634 19.4542 7.56417C19.5882 7.56199 19.7212 7.58676 19.8455 7.63701C19.9697 7.68726 20.0825 7.76196 20.1773 7.85668C20.2721 7.95139 20.3469 8.06419 20.3972 8.18837C20.4475 8.31255 20.4724 8.44558 20.4703 8.57956C20.4682 8.71354 20.4393 8.84574 20.3851 8.96829C20.3309 9.09085 20.2527 9.20127 20.155 9.293L18.45 11H21C21.2652 11 21.5196 11.1054 21.7071 11.2929C21.8946 11.4804 22 11.7348 22 12C22 12.2652 21.8946 12.5196 21.7071 12.7071C21.5196 12.8946 21.2652 13 21 13H18.449L20.155 14.707C20.3372 14.8956 20.438 15.1482 20.4357 15.4104C20.4334 15.6726 20.3282 15.9234 20.1428 16.1088C19.9574 16.2942 19.7066 16.3994 19.4444 16.4017C19.1822 16.404 18.9296 16.3032 18.741 16.121L15.621 13H13V15.62L16.12 18.741C16.2978 18.9303 16.3949 19.1814 16.3909 19.4411C16.3869 19.7008 16.282 19.9487 16.0984 20.1324C15.9148 20.3161 15.667 20.4212 15.4073 20.4254C15.1476 20.4296 14.8965 20.3327 14.707 20.155L13 18.45V21C13 21.2652 12.8946 21.5196 12.7071 21.7071C12.5196 21.8946 12.2652 22 12 22C11.7348 22 11.4804 21.8946 11.2929 21.7071C11.1054 21.5196 11 21.2652 11 21V18.449L9.293 20.155C9.1044 20.3372 8.8518 20.438 8.5896 20.4357C8.3274 20.4334 8.07659 20.3282 7.89118 20.1428C7.70577 19.9574 7.6006 19.7066 7.59833 19.4444C7.59605 19.1822 7.69684 18.9296 7.879 18.741L11 15.621V13H8.38L5.259 16.12C5.06967 16.2978 4.81861 16.3949 4.55892 16.3909C4.29924 16.3869 4.05131 16.282 3.86759 16.0984C3.68388 15.9148 3.5788 15.667 3.57458 15.4073C3.57037 15.1476 3.66734 14.8965 3.845 14.707L5.55 13H3C2.73478 13 2.48043 12.8946 2.29289 12.7071C2.10536 12.5196 2 12.2652 2 12C2 11.7348 2.10536 11.4804 2.29289 11.2929C2.48043 11.1054 2.73478 11 3 11H5.551L3.845 9.293C3.74732 9.20127 3.66907 9.09085 3.61491 8.96829C3.56074 8.84574 3.53175 8.71354 3.52967 8.57956C3.52759 8.44558 3.55246 8.31255 3.60279 8.18837C3.65313 8.06419 3.72791 7.95139 3.82269 7.85668C3.91748 7.76196 4.03033 7.68726 4.15454 7.63701C4.27876 7.58676 4.41181 7.56199 4.54579 7.56417C4.67976 7.56634 4.81194 7.59542 4.93446 7.64968C5.05698 7.70393 5.16734 7.78226 5.259 7.88L8.379 11H11V8.38L7.88 5.259C7.70221 5.06967 7.60505 4.81861 7.60909 4.55892C7.61312 4.29924 7.71803 4.05131 7.90161 3.86759C8.08519 3.68388 8.33305 3.5788 8.59273 3.57458C8.85241 3.57037 9.10355 3.66734 9.293 3.845L11 5.55V3C11 2.73478 11.1054 2.48043 11.2929 2.29289C11.4804 2.10536 11.7348 2 12 2Z" fill="black"/>
</svg>
